<svg xmlns="http://www.w3.org/2000/svg" viewBox="0 0 56.4 56.42"><defs><style>.cls-1{fill:#779750;}</style></defs><title>Ресурс 1</title><g id="Слой_2" data-name="Слой 2"><g id="Слой_1-2" data-name="Слой 1"><path class="cls-1" d="M30.6,0H25.8A25.86,25.86,0,0,0,0,25.8H0v4.8A25.86,25.86,0,0,0,25.8,56.4h4.8c13.9.5,25.1-10.5,25.8-25.8h0V25.8C56.2,13.6,46,0,30.6,0Zm8,35.5a10.48,10.48,0,0,1-8.3,10.2c.4-4.4,3.4-8.3,8.3-10.8-.1.2,0,.4,0,.6Zm-8.4.9V33.9c0-3.8,2-7.4,5.6-10.1a28,28,0,0,1,2.3,6.9,23.51,23.51,0,0,0-7.9,5.7Zm0-12.7V15.5a34.1,34.1,0,0,1,3.7,4.8,19.94,19.94,0,0,0-3.7,3.4Zm-4,0a17.49,17.49,0,0,0-3.8-3.4,35.71,35.71,0,0,1,3.8-4.9Zm-5.7,0c3.7,2.7,5.8,6.4,5.8,10.2v2.5a22,22,0,0,0-8-5.8,25.2,25.2,0,0,1,2.2-6.9ZM17.9,34.9c4.8,2.5,7.9,6.5,8.3,10.8a10.4,10.4,0,0,1-8.3-10.2C17.8,35.3,17.9,35.1,17.9,34.9Zm34.6-2.6c0,12.1-9.8,20.1-21.9,20.1h-.4V49.6A14.25,14.25,0,0,0,42.5,35.4c0-16.2-12.6-25.8-13.1-26.2l-1.1-.8-1.2.8A33.35,33.35,0,0,0,13.9,35.5,14.41,14.41,0,0,0,26.2,49.7v2.7h-.4A21.85,21.85,0,0,1,4,30.6V25.8A21.85,21.85,0,0,1,25.8,4h4.8C42.2,4,52.5,16.2,52.5,25.8Z"/></g></g></svg>